<svg width="30" height="12" viewBox="0 0 30 12" fill="none" xmlns="http://www.w3.org/2000/svg">
<path d="M22.4098 0.586292C22.1235 0.586092 21.8376 0.601258 21.5538 0.631696C20.2356 0.772446 19.0004 1.23408 18.0104 1.95603C17.8802 2.05062 17.7542 2.14962 17.6325 2.25305C16.9158 2.75767 16.001 3.03717 15.0531 3.04103C14.0672 3.03914 13.1161 2.74446 12.3784 2.21238C12.2865 2.13576 12.1923 2.06104 12.0935 1.98915C11.1024 1.25028 9.85767 0.775044 8.52567 0.626961C8.24922 0.597341 7.97068 0.582492 7.69185 0.582504C6.81727 0.573063 5.94911 0.705035 5.13774 0.970746C4.32638 1.23646 3.58798 1.63061 2.96542 2.13035C2.34286 2.63008 1.84853 3.22543 1.51113 3.88183C1.17374 4.53824 1 5.24262 1 5.95408C1 6.66555 1.17374 7.36995 1.51113 8.02635C1.84853 8.68276 2.34286 9.27811 2.96542 9.77784C3.58798 10.2776 4.32638 10.6717 5.13774 10.9374C5.94911 11.2032 6.81727 11.3351 7.69185 11.3257C7.97068 11.3257 8.24922 11.3108 8.52567 11.2812C8.73569 11.2585 8.94413 11.2269 9.15015 11.1866H9.16294L9.31993 11.1545C9.37227 11.1441 9.42459 11.1318 9.47576 11.1195C9.52693 11.1072 9.57927 11.0949 9.63044 11.0816L9.75486 11.0485L9.87116 11.0145C10.0188 10.9709 10.1642 10.9199 10.3073 10.8707L10.4235 10.8262L10.4863 10.8026C10.6329 10.7449 10.7771 10.6824 10.9178 10.6134C10.962 10.5935 11.0038 10.5727 11.0469 10.5519C11.148 10.5018 11.2469 10.4497 11.3446 10.3958C11.4155 10.3561 11.4853 10.3154 11.5551 10.2747C11.6248 10.234 11.6807 10.1981 11.7423 10.1574L11.8586 10.0789L11.9749 9.99851C12.0133 9.97297 12.0505 9.94553 12.0912 9.9181C12.2075 9.83674 12.3168 9.75256 12.4214 9.66364C13.1508 9.15163 14.0815 8.86907 15.045 8.86716C15.9831 8.86974 16.8896 9.14291 17.6034 9.6381C17.729 9.74594 17.8616 9.84715 17.9988 9.94553L18.0069 9.95216C18.0674 9.99662 18.1232 10.0401 18.1918 10.0817C18.2605 10.1234 18.2988 10.1536 18.3535 10.1877L18.3907 10.2114L18.4488 10.2473C18.5012 10.2804 18.5558 10.3116 18.6105 10.3419C18.6651 10.3722 18.7268 10.4053 18.7791 10.4365C18.984 10.5462 19.196 10.6469 19.4141 10.7383C19.4873 10.7685 19.5606 10.7978 19.635 10.8262C19.7095 10.8546 19.785 10.8811 19.8606 10.9076C19.9362 10.9341 19.999 10.953 20.0688 10.9757C20.27 11.0372 20.4746 11.092 20.684 11.1374C20.9684 11.2008 21.2579 11.2482 21.5504 11.2793C21.8341 11.3098 22.12 11.3249 22.4063 11.3247C25.988 11.3247 29 8.89175 29 5.9612C29 3.03064 25.9915 0.586292 22.4098 0.586292ZM22.4098 9.26066C21.4553 9.25822 20.5327 8.98147 19.8048 8.47931C19.6792 8.37242 19.5478 8.26931 19.4117 8.17187C18.4283 7.45816 17.2047 7.00022 15.8986 6.85701C15.6225 6.82739 15.3444 6.81254 15.0659 6.81255C14.7797 6.81235 14.4938 6.82752 14.21 6.85796C12.9168 6.99555 11.7027 7.44194 10.7213 8.14067L10.691 8.16337C10.5413 8.26987 10.3985 8.38257 10.2631 8.50106C9.55064 8.99085 8.64905 9.2611 7.71627 9.26445C5.49858 9.26445 3.64605 7.75754 3.64605 5.9697C3.65636 5.09421 4.08849 4.25696 4.84958 3.63786C5.61067 3.01877 6.63997 2.66725 7.71627 2.65886C8.63574 2.66064 9.52583 2.9225 10.234 3.39955C10.39 3.53657 10.555 3.66668 10.7282 3.78929C11.9317 4.64445 13.476 5.11505 15.0741 5.11363C15.3533 5.11365 15.6322 5.09878 15.909 5.06915C17.2171 4.92552 18.4423 4.46658 19.4269 3.75144C19.5641 3.65685 19.6967 3.54901 19.8234 3.44117C20.5505 2.93768 21.4735 2.66015 22.4283 2.65792C24.646 2.65792 26.4579 4.1809 26.4579 5.96875C26.4393 7.73768 24.6077 9.26066 22.4098 9.26066Z" stroke="white" stroke-miterlimit="10"/>
</svg>
