<svg width="24" height="18" viewBox="0 0 24 18" fill="none" xmlns="http://www.w3.org/2000/svg">
<path d="M23.0412 2.85942L22.8922 2.93422C21.0875 3.83987 19.2779 4.74164 17.4668 5.6441C16.2865 6.23227 15.1056 6.82074 13.9251 7.41076C13.5086 7.65522 13.0684 7.86161 12.6104 8.02717L12.5911 8.03414L12.571 8.03788C12.1878 8.10888 11.793 8.10248 11.4126 8.01906C11.0391 7.93715 10.6871 7.78266 10.3793 7.56482C9.21576 6.98766 8.0519 6.40517 6.8923 5.82482C6.34832 5.55257 5.80527 5.28079 5.26363 5.01024C5.19819 4.9779 5.1327 4.94554 5.06716 4.91314C3.75385 4.2641 2.41985 3.60482 1.10769 2.9455L0.959696 2.87114L0.970458 2.70587C1.00293 2.20723 1.23678 1.74257 1.6189 1.40543C2.00053 1.06871 2.50176 0.883675 3.01974 0.884216M23.0412 2.85942L20.9804 1.13422M23.0412 2.85942L23.0294 2.69308C22.9942 2.19648 22.7591 1.73467 22.3771 1.40009C21.9957 1.06598 21.496 0.882899 20.98 0.884216M23.0412 2.85942L20.9804 1.13422M3.01974 0.884216C3.0198 0.884216 3.01985 0.884216 3.01991 0.884216L3.01963 1.13422V0.884216H3.01974ZM3.01974 0.884216H20.98M20.98 0.884216C20.9799 0.884216 20.9798 0.884216 20.9797 0.884216L20.9804 1.13422M20.98 0.884216H20.9804V1.13422M1.31847 3.78526L0.957851 3.60733V4.00945V15.1645C0.957851 15.6872 1.17915 16.1852 1.56737 16.5497C1.95506 16.9138 2.47771 17.1158 3.01963 17.1158H20.9804C21.5223 17.1158 22.0449 16.9138 22.4326 16.5497C22.8208 16.1852 23.0421 15.6872 23.0421 15.1645V4.00945V3.60617L22.681 3.78554C22.3763 3.93684 22.0722 4.08755 21.7683 4.23812C20.8208 4.70769 19.8758 5.17601 18.9241 5.65719C18.0483 6.08825 17.1756 6.52211 16.3034 6.9557L16.3034 6.95572C15.4307 7.3896 14.5584 7.82321 13.6833 8.25396L13.6743 8.25838L13.6657 8.26351C13.0031 8.65846 12.208 8.81368 11.4302 8.69834C10.8825 8.54555 10.3586 8.32622 9.87209 8.0461L9.8655 8.04231L9.85869 8.03892C8.78501 7.5049 7.71249 6.969 6.64015 6.43319C4.86723 5.54731 3.09481 4.66169 1.31847 3.78526ZM3.01963 0.25H20.9804C21.7198 0.25 22.4261 0.525983 22.9444 1.01275C23.4623 1.49903 23.75 2.15507 23.75 2.83554V15.1645C23.75 15.8449 23.4623 16.501 22.9444 16.9872C22.4261 17.474 21.7198 17.75 20.9804 17.75H3.01963C2.28018 17.75 1.57394 17.474 1.05556 16.9872C0.537722 16.501 0.25 15.8449 0.25 15.1645V2.83554C0.25 2.15507 0.537722 1.49903 1.05556 1.01275C1.57394 0.525983 2.28018 0.25 3.01963 0.25Z" fill="white" stroke="white" stroke-width="0.5"/>
</svg>
