<svg width="24" height="24" viewBox="0 0 24 24" fill="none" xmlns="http://www.w3.org/2000/svg">
<path d="M22.8638 6.58368C21.8582 10.5072 19.8165 14.0884 16.9524 16.9524C14.0884 19.8165 10.5072 21.8582 6.58368 22.8638C3.56483 23.6322 1 21.0364 1 17.9202V16.5102C1 15.7319 1.6331 15.1073 2.4072 15.0297C3.69106 14.9032 4.95129 14.6 6.15221 14.1287L8.29544 16.2719C11.7851 14.5992 14.5992 11.7851 16.2719 8.29544L14.1287 6.15221C14.6004 4.95136 14.9041 3.69112 15.0311 2.4072C15.1073 1.63169 15.7319 1 16.5102 1H17.9202C21.0364 1 23.6322 3.56483 22.8638 6.58368Z" stroke="white" stroke-linecap="round" stroke-linejoin="round"/>
</svg>
