<svg width="267" height="27" viewBox="0 0 267 27" fill="none" xmlns="http://www.w3.org/2000/svg">
<g clip-path="url(#clip0_1478_3074)">
<path d="M169.263 16.749C169.263 14.7517 169.608 13.004 170.298 11.506C170.92 10.0874 171.934 8.87573 173.22 8.01317C174.478 7.18496 175.946 6.77087 177.624 6.77087C179.014 6.74732 180.391 7.03394 181.656 7.60987C182.796 8.12974 183.782 8.93613 184.518 9.95047C185.249 10.9826 185.685 12.1946 185.779 13.456H183.83C183.751 11.958 183.157 10.7697 182.048 9.89104C180.939 9.01242 179.465 8.57253 177.626 8.57133C175.586 8.57133 174.007 9.2855 172.891 10.7139C171.775 12.1422 171.215 14.1551 171.213 16.7526C171.213 19.3705 171.772 21.3984 172.891 22.8364C174.01 24.2743 175.588 24.9945 177.626 24.9969C179.307 24.9969 180.675 24.3776 181.733 23.1388C182.79 21.9001 183.391 20.2317 183.533 18.1335H177.505V16.4861H185.77V26.5543H184.362L184.151 21.5508C183.571 23.1472 182.707 24.4207 181.558 25.3714C180.428 26.3134 178.998 26.8182 177.527 26.7938C175.992 26.82 174.486 26.3806 173.206 25.5335C171.926 24.655 170.92 23.4347 170.3 22.0117C169.61 20.4994 169.264 18.7451 169.263 16.749Z" fill="white"/>
<path d="M195.672 18.3715H190.876V26.5528H189.01V7.06822H197.014C198.099 7.04284 199.174 7.28457 200.145 7.77218C201.013 8.22148 201.735 8.90836 202.228 9.75269C202.742 10.6607 203.001 11.691 202.977 12.7343C203.01 13.8949 202.633 15.0302 201.913 15.9409C201.174 16.8376 200.156 17.4603 199.021 17.709C200.119 17.889 200.928 18.3133 201.448 18.9818C201.968 19.6504 202.307 20.6449 202.467 21.9652L203.007 26.5492H201.178L200.668 22.2047C200.508 20.8447 200.038 19.8659 199.261 19.2681C198.483 18.6704 197.287 18.3715 195.672 18.3715ZM196.81 8.78226H190.869V16.6629H196.81C198.15 16.6629 199.194 16.3238 199.943 15.6456C200.692 14.9675 201.066 14.018 201.066 12.7973C201.066 11.5382 200.692 10.5545 199.943 9.84631C199.194 9.13813 198.148 8.78165 196.805 8.77685L196.81 8.78226Z" fill="white"/>
<path d="M205.645 17.0474C205.645 14.9889 206.01 13.1884 206.74 11.646C207.4 10.1872 208.453 8.9405 209.781 8.04512C211.079 7.1869 212.598 6.75781 214.336 6.75781C216.056 6.75781 217.565 7.1869 218.862 8.04512C220.19 8.9405 221.243 10.1872 221.903 11.646C222.632 13.1836 222.997 14.9841 222.998 17.0474C222.998 18.9847 222.633 20.688 221.903 22.1572C221.233 23.5619 220.179 24.748 218.862 25.578C217.562 26.3882 216.053 26.7927 214.336 26.7915C212.598 26.7915 211.075 26.387 209.766 25.578C208.444 24.754 207.388 23.5663 206.723 22.1572C206.006 20.688 205.646 18.9847 205.645 17.0474ZM221.05 17.0474C221.05 14.3707 220.46 12.2876 219.282 10.798C218.103 9.30845 216.454 8.56428 214.336 8.56548C212.198 8.56548 210.54 9.30965 209.361 10.798C208.182 12.2864 207.593 14.3695 207.593 17.0474C207.593 19.5681 208.182 21.521 209.361 22.9061C210.54 24.2913 212.198 24.9857 214.336 24.9893C216.453 24.9893 218.102 24.2949 219.282 22.9061C220.462 21.5174 221.054 19.5645 221.059 17.0474H221.05Z" fill="white"/>
<path d="M225.785 7.06641H227.643V19.1133C227.643 20.9713 228.123 22.4117 229.083 23.4344C230.044 24.457 231.382 24.9666 233.098 24.963C234.797 24.963 236.121 24.4534 237.07 23.4344C238.02 22.4153 238.494 20.9749 238.493 19.1133V7.06641H240.351V19.1133C240.351 20.6521 240.046 21.9958 239.438 23.1445C238.858 24.2608 237.975 25.1907 236.89 25.8272C235.736 26.4829 234.426 26.8139 233.098 26.785C231.757 26.8151 230.433 26.4843 229.263 25.8272C228.171 25.1951 227.282 24.2645 226.7 23.1445C226.091 21.9958 225.787 20.6521 225.787 19.1133L225.785 7.06641Z" fill="white"/>
<path d="M251.288 19.2051H245.295V26.5473H243.437V7.06817H251.108C252.259 7.04211 253.397 7.30521 254.419 7.83337C255.351 8.32528 256.121 9.07543 256.638 9.99392C257.181 10.979 257.455 12.0901 257.432 13.215C257.452 14.2915 257.194 15.355 256.683 16.3027C256.186 17.1971 255.449 17.9344 254.554 18.4309C253.552 18.9686 252.426 19.2354 251.288 19.2051ZM250.928 8.7768H245.295V17.4712H250.928C252.369 17.4712 253.487 17.1016 254.284 16.3622C255.081 15.6228 255.481 14.5737 255.484 13.215C255.484 11.8178 255.084 10.7291 254.284 9.94891C253.485 9.16871 252.366 8.77801 250.928 8.7768Z" fill="white"/>
<path d="M27.2554 6.70312L21.9926 21.0708L17.4879 6.70312H14.3047L9.48482 21.0708L4.50655 6.70312H0L7.24685 26.4902H11.5319L15.817 13.887L19.9761 26.4902H24.0721L31.6341 6.70312H27.2554Z" fill="white"/>
<path d="M93.5483 6.70312H77.7042V26.4902H93.5483C96.1625 26.4902 97.4859 25.1993 97.4859 22.5526V10.6695C97.4873 9.62213 97.0738 8.61676 96.3359 7.87342C95.598 7.13009 94.5957 6.70931 93.5483 6.70312ZM93.5483 22.5472H81.703V10.6641H93.5501L93.5483 22.5472Z" fill="white"/>
<path d="M104.637 6.70312H100.667V26.4902H116.484V22.5526H104.637V6.70312Z" fill="white"/>
<path d="M122.66 18.5826H134.444V14.6432H122.66V10.6731H134.507V6.70312H118.721V26.4902H134.539V22.5526H122.66V18.5826Z" fill="white"/>
<path d="M150.576 16.0295L159.461 6.70312H154.168L147.929 13.5413L141.628 6.70312H136.176L145.124 16.0619L135.956 26.4902H141.217L147.677 18.8022L154.231 26.4902H159.681L150.576 16.0295Z" fill="white"/>
<path d="M64.5591 6.38672C64.116 6.38634 63.6733 6.41521 63.234 6.47314C61.1948 6.74634 59.2857 7.62936 57.757 9.0064C57.5553 9.18645 57.3603 9.37488 57.1718 9.57173C56.0623 10.5322 54.6459 11.0642 53.1784 11.0715C51.652 11.0679 50.1794 10.5071 49.0374 9.49432C48.8951 9.34848 48.7493 9.20627 48.5962 9.06943C47.0618 7.66313 45.1347 6.7586 43.0724 6.47675C42.6444 6.42037 42.2132 6.39211 41.7815 6.39213C40.4275 6.37416 39.0833 6.62535 37.8272 7.13108C36.571 7.63682 35.4278 8.38702 34.4639 9.33818C33.5001 10.2893 32.7347 11.4225 32.2124 12.6718C31.69 13.9212 31.421 15.2619 31.421 16.616C31.421 17.9702 31.69 19.3109 32.2124 20.5602C32.7347 21.8096 33.5001 22.9427 34.4639 23.8939C35.4278 24.8451 36.571 25.5953 37.8272 26.101C39.0833 26.6067 40.4275 26.8579 41.7815 26.84C42.2132 26.84 42.6444 26.8117 43.0724 26.7553C43.3976 26.712 43.7203 26.6519 44.0393 26.5753H44.0591L44.3021 26.5141C44.3832 26.4943 44.4642 26.4709 44.5434 26.4475C44.6226 26.4241 44.7037 26.4006 44.7829 26.3754L44.9755 26.3124L45.1556 26.2476C45.3842 26.1648 45.6093 26.0676 45.8307 25.9739L46.0108 25.8893L46.108 25.8443C46.3349 25.7345 46.5581 25.6156 46.776 25.4842C46.8444 25.4464 46.9092 25.4068 46.9758 25.3672C47.1325 25.2718 47.2855 25.1727 47.4368 25.0701C47.5466 24.9945 47.6546 24.9171 47.7626 24.8396C47.8707 24.7622 47.9571 24.6938 48.0525 24.6164L48.2325 24.467L48.4126 24.3139C48.472 24.2653 48.5296 24.2131 48.5926 24.1609C48.7727 24.006 48.9419 23.8458 49.104 23.6765C50.2332 22.702 51.6742 22.1642 53.1658 22.1606C54.6182 22.1655 56.0218 22.6854 57.1268 23.6279C57.3213 23.8332 57.5265 24.0258 57.739 24.2131C57.7436 24.2168 57.7478 24.2211 57.7516 24.2257C57.8452 24.3103 57.9316 24.3931 58.0379 24.4723C58.1441 24.5516 58.2035 24.6092 58.2881 24.674L58.3457 24.719L58.4358 24.7874C58.5168 24.8504 58.6014 24.9098 58.686 24.9675C58.7706 25.0251 58.8661 25.0881 58.9471 25.1475C59.2643 25.3563 59.5925 25.548 59.9301 25.7219C60.0436 25.7795 60.157 25.8353 60.2722 25.8893C60.3875 25.9433 60.5045 25.9937 60.6215 26.0441C60.7385 26.0945 60.8358 26.1306 60.9438 26.1738C61.2553 26.2908 61.5722 26.3953 61.8962 26.4817C62.3367 26.6022 62.7848 26.6925 63.2376 26.7517C63.6769 26.8097 64.1196 26.8385 64.5627 26.8382C70.1081 26.8382 74.7713 22.2074 74.7713 16.6296C74.7713 11.0517 70.1045 6.38672 64.5591 6.38672ZM64.5591 22.8969C63.0815 22.8923 61.653 22.3655 60.5261 21.4097C60.3316 21.2063 60.1282 21.01 59.9175 20.8246C58.3949 19.4662 56.5006 18.5946 54.4783 18.322C54.0509 18.2656 53.6203 18.2373 53.1892 18.2374C52.7461 18.237 52.3034 18.2658 51.8641 18.3238C49.8618 18.5857 47.9822 19.4353 46.4627 20.7652L46.4159 20.8084C46.1841 21.0111 45.963 21.2257 45.7533 21.4512C44.6503 22.3834 43.2545 22.8978 41.8103 22.9041C38.3768 22.9041 35.5087 20.036 35.5087 16.6332C35.5247 14.9668 36.1937 13.3732 37.372 12.1949C38.5504 11.0165 40.144 10.3475 41.8103 10.3316C43.2339 10.3349 44.6119 10.8333 45.7083 11.7413C45.9499 12.0021 46.2053 12.2497 46.4735 12.4831C48.3368 14.1107 50.7277 15.0064 53.2018 15.0037C53.6341 15.0038 54.066 14.9755 54.4946 14.9191C56.5115 14.6413 58.3997 13.768 59.9175 12.4111C60.13 12.231 60.3352 12.0258 60.5315 11.8205C61.6572 10.8622 63.0862 10.334 64.5645 10.3298C67.998 10.3298 70.8031 13.2285 70.8031 16.6314C70.7977 19.9982 67.962 22.8969 64.5591 22.8969Z" fill="white"/>
<path d="M263.809 6.33194C263.371 6.33661 262.936 6.25655 262.529 6.09612C262.149 5.94489 261.805 5.7184 261.515 5.43031C261.226 5.14222 260.998 4.79848 260.845 4.41988C260.524 3.61029 260.524 2.70882 260.845 1.89924C260.998 1.52239 261.226 1.18056 261.515 0.894565C261.806 0.608855 262.15 0.383665 262.529 0.232008C263.35 -0.0825444 264.259 -0.0825444 265.08 0.232008C265.459 0.384915 265.804 0.609926 266.097 0.894565C266.388 1.18031 266.618 1.52211 266.772 1.89924C267.093 2.70882 267.093 3.61029 266.772 4.41988C266.617 4.7983 266.387 5.14173 266.097 5.42991C265.805 5.71683 265.46 5.94326 265.08 6.09612C264.675 6.25589 264.244 6.33595 263.809 6.33194ZM263.809 6.01506C264.312 6.02015 264.808 5.89617 265.249 5.65497C265.677 5.4201 266.032 5.07267 266.275 4.65034C266.533 4.19845 266.664 3.68515 266.654 3.16496C266.657 2.78014 266.585 2.39834 266.441 2.04148C266.303 1.70389 266.099 1.39766 265.84 1.14125C265.582 0.883299 265.276 0.678896 264.939 0.53988C264.209 0.254128 263.398 0.254128 262.667 0.53988C262.33 0.678 262.022 0.881637 261.764 1.13905C261.505 1.39647 261.3 1.70258 261.16 2.03968C261.016 2.39454 260.944 2.77464 260.948 3.15776C260.944 3.54315 261.016 3.92551 261.16 4.28304C261.298 4.61978 261.501 4.92579 261.758 5.18327C262.015 5.44215 262.321 5.64774 262.658 5.78825C263.023 5.94059 263.414 6.01771 263.809 6.01506ZM262.476 1.18626H264.138C264.356 1.17996 264.569 1.24302 264.749 1.36631C264.922 1.48817 265.064 1.64991 265.163 1.838C265.255 2.01034 265.307 2.20167 265.313 2.39713C265.32 2.5926 265.281 2.78695 265.201 2.96509C265.128 3.12743 265.021 3.27231 264.887 3.39002C264.754 3.50687 264.592 3.58583 264.417 3.61868L265.384 5.14907H264.878L263.956 3.67987H262.937V5.14907H262.469L262.476 1.18626ZM264.138 3.28017C264.241 3.28635 264.345 3.26728 264.439 3.22461C264.533 3.18195 264.615 3.11699 264.678 3.03534C264.803 2.86228 264.866 2.65253 264.858 2.43937C264.868 2.21984 264.791 2.0054 264.644 1.84161C264.576 1.76625 264.493 1.70649 264.4 1.6664C264.306 1.62631 264.206 1.60684 264.104 1.60934H262.937V3.28017H264.138Z" fill="white"/>
</g>
<defs>
<clipPath id="clip0_1478_3074">
<rect width="267.01" height="26.8377" fill="white"/>
</clipPath>
</defs>
</svg>
