<svg width="493" height="50" viewBox="0 0 493 50" fill="none" xmlns="http://www.w3.org/2000/svg">
<g clip-path="url(#clip0_1383_636)">
<path d="M312.526 31.0739C312.526 27.3862 313.163 24.1594 314.438 21.3936C315.586 18.7744 317.458 16.5372 319.833 14.9446C322.156 13.4155 324.866 12.6509 327.964 12.6509C330.529 12.6074 333.072 13.1366 335.407 14.2C337.513 15.1598 339.334 16.6487 340.693 18.5215C342.043 20.4272 342.847 22.6649 343.02 24.9938H339.423C339.277 22.228 338.18 20.034 336.132 18.4118C334.084 16.7896 331.363 15.9774 327.967 15.9752C324.2 15.9752 321.286 17.2938 319.225 19.931C317.164 22.5682 316.131 26.2848 316.126 31.0806C316.126 35.914 317.159 39.6582 319.225 42.3132C321.29 44.9682 324.204 46.2979 327.967 46.3023C331.07 46.3023 333.598 45.1587 335.55 42.8717C337.502 40.5846 338.611 37.5041 338.874 33.6302H327.745V30.5886H343.003V49.1778H340.403L340.015 39.9397C338.944 42.8872 337.348 45.2385 335.228 46.9937C333.142 48.733 330.5 49.665 327.785 49.6199C324.951 49.6683 322.17 48.857 319.806 47.2929C317.444 45.6711 315.585 43.418 314.441 40.7907C313.167 37.9983 312.528 34.7594 312.526 31.0739Z" fill="white"/>
<path d="M361.286 34.0644H352.431V49.1698H348.987V13.1948H363.763C365.767 13.1479 367.752 13.5942 369.544 14.4945C371.147 15.3241 372.481 16.5923 373.39 18.1512C374.34 19.8277 374.817 21.73 374.773 23.6562C374.834 25.7992 374.138 27.8952 372.808 29.5767C371.445 31.2323 369.565 32.3819 367.47 32.8411C369.497 33.1735 370.991 33.9569 371.951 35.1913C372.91 36.4257 373.537 38.2618 373.832 40.6996L374.829 49.1631H371.452L370.511 41.1418C370.214 38.6308 369.348 36.8235 367.912 35.7199C366.476 34.6162 364.267 34.0644 361.286 34.0644ZM363.387 16.3594H352.417V30.9097H363.387C365.861 30.9097 367.789 30.2837 369.172 29.0315C370.554 27.7794 371.246 26.0264 371.246 23.7725C371.246 21.4478 370.554 19.6316 369.172 18.324C367.789 17.0165 365.857 16.3583 363.377 16.3495L363.387 16.3594Z" fill="white"/>
<path d="M379.7 31.6231C379.7 27.8223 380.373 24.4981 381.721 21.6503C382.94 18.9567 384.884 16.655 387.335 15.0018C389.733 13.4172 392.537 12.625 395.746 12.625C398.921 12.625 401.707 13.4172 404.103 15.0018C406.554 16.655 408.498 18.9567 409.718 21.6503C411.063 24.4892 411.736 27.8135 411.739 31.6231C411.739 35.2 411.065 38.3447 409.718 41.0573C408.48 43.6509 406.534 45.8409 404.103 47.3734C401.703 48.8693 398.917 49.6162 395.746 49.614C392.537 49.614 389.724 48.8671 387.309 47.3734C384.868 45.8519 382.917 43.659 381.691 41.0573C380.365 38.3447 379.702 35.2 379.7 31.6231ZM408.142 31.6231C408.142 26.681 407.054 22.8349 404.877 20.0846C402.701 17.3343 399.657 15.9603 395.746 15.9626C391.799 15.9626 388.737 17.3366 386.561 20.0846C384.385 22.8327 383.296 26.6788 383.296 31.6231C383.296 36.277 384.385 39.8827 386.561 42.4402C388.737 44.9977 391.799 46.2797 395.746 46.2864C399.655 46.2864 402.699 45.0043 404.877 42.4402C407.056 39.8761 408.15 36.2704 408.158 31.6231H408.142Z" fill="white"/>
<path d="M416.885 13.1953H420.315V35.4379C420.315 38.8685 421.202 41.5279 422.975 43.4161C424.747 45.3042 427.219 46.2451 430.388 46.2384C433.524 46.2384 435.968 45.2976 437.721 43.4161C439.474 41.5345 440.349 38.8751 440.347 35.4379V13.1953H443.778V35.4379C443.778 38.279 443.216 40.76 442.092 42.8809C441.022 44.942 439.392 46.6589 437.389 47.834C435.257 49.0447 432.838 49.6558 430.388 49.6025C427.912 49.658 425.466 49.0472 423.307 47.834C421.29 46.667 419.648 44.9487 418.573 42.8809C417.45 40.76 416.888 38.279 416.888 35.4379L416.885 13.1953Z" fill="white"/>
<path d="M463.973 35.6034H452.906V49.1597H449.476V13.1947H463.64C465.764 13.1465 467.866 13.6323 469.754 14.6075C471.474 15.5157 472.896 16.9007 473.849 18.5966C474.853 20.4154 475.358 22.4669 475.315 24.5437C475.352 26.5314 474.876 28.4949 473.932 30.2448C473.015 31.8961 471.654 33.2573 470.003 34.1741C468.151 35.1668 466.073 35.6594 463.973 35.6034ZM463.308 16.3494H452.906V32.4022H463.308C465.967 32.4022 468.033 31.7197 469.504 30.3545C470.976 28.9893 471.714 27.0524 471.718 24.5437C471.718 21.9641 470.98 19.954 469.504 18.5135C468.028 17.073 465.963 16.3516 463.308 16.3494Z" fill="white"/>
<path d="M50.3326 12.5234L40.6158 39.051L32.2985 12.5234H26.4212L17.5222 39.051L8.33061 12.5234H0.0100098L13.3901 49.057H21.3018L29.2136 25.7872L36.8926 49.057H44.4553L58.4171 12.5234H50.3326Z" fill="white"/>
<path d="M172.732 12.5234H143.478V49.057H172.732C177.558 49.057 180.002 46.6735 180.002 41.7868V19.8468C180.004 17.9129 179.241 16.0566 177.878 14.6842C176.516 13.3118 174.665 12.5349 172.732 12.5234ZM172.732 41.7769H150.861V19.8368H172.735L172.732 41.7769Z" fill="white"/>
<path d="M193.206 12.5234H185.876V49.057H215.079V41.7868H193.206V12.5234Z" fill="white"/>
<path d="M226.481 34.4569H248.239V27.1834H226.481V19.8534H248.355V12.5234H219.208V49.057H248.415V41.7868H226.481V34.4569Z" fill="white"/>
<path d="M278.024 29.7431L294.429 12.5234H284.656L273.137 25.1489L261.502 12.5234H251.437L267.958 29.8029L251.031 49.057H260.744L272.672 34.8624L284.772 49.057H294.835L278.024 29.7431Z" fill="white"/>
<path d="M119.208 11.9414C118.39 11.9407 117.572 11.994 116.761 12.101C112.996 12.6054 109.471 14.2357 106.649 16.7782C106.276 17.1106 105.916 17.4585 105.568 17.822C103.52 19.5953 100.905 20.5775 98.1951 20.5911C95.3769 20.5845 92.658 19.5489 90.5494 17.6791C90.2867 17.4098 90.0175 17.1472 89.7349 16.8946C86.9018 14.2981 83.3437 12.628 79.5361 12.1076C78.7459 12.0035 77.9497 11.9514 77.1526 11.9514C74.6526 11.9182 72.1709 12.382 69.8516 13.3158C67.5323 14.2495 65.4215 15.6346 63.6419 17.3908C61.8623 19.147 60.4492 21.2391 59.4848 23.5459C58.5203 25.8526 58.0237 28.3279 58.0237 30.8281C58.0237 33.3284 58.5203 35.8038 59.4848 38.1105C60.4492 40.4172 61.8623 42.5094 63.6419 44.2655C65.4215 46.0217 67.5323 47.4068 69.8516 48.3406C72.1709 49.2744 74.6526 49.7381 77.1526 49.705C77.9497 49.705 78.7459 49.6528 79.5361 49.5487C80.1365 49.4687 80.7323 49.3578 81.3212 49.2163H81.3578L81.8066 49.1032C81.9562 49.0667 82.1057 49.0235 82.252 48.9803C82.3983 48.9371 82.5479 48.8938 82.6941 48.8473L83.0498 48.731L83.3823 48.6113C83.8044 48.4583 84.22 48.2788 84.6289 48.106L84.9613 47.9497L85.1408 47.8666C85.5596 47.6639 85.9719 47.4445 86.3741 47.2018C86.5004 47.132 86.6201 47.0589 86.7431 46.9857C87.0323 46.8096 87.3148 46.6267 87.5941 46.4372C87.7969 46.2976 87.9963 46.1546 88.1958 46.0117C88.3952 45.8687 88.5548 45.7424 88.731 45.5995L89.0634 45.3236L89.3958 45.041C89.5055 44.9513 89.6119 44.8548 89.7283 44.7584C90.0607 44.4725 90.3732 44.1767 90.6723 43.8642C92.7573 42.0649 95.4178 41.072 98.1719 41.0652C100.853 41.0743 103.445 42.0343 105.485 43.7745C105.844 44.1534 106.223 44.5091 106.615 44.8548C106.624 44.8617 106.632 44.8696 106.639 44.8781C106.812 45.0344 106.971 45.1872 107.167 45.3335C107.363 45.4798 107.473 45.5862 107.629 45.7059L107.736 45.789L107.902 45.9153C108.052 46.0316 108.208 46.1413 108.364 46.2477C108.52 46.3541 108.696 46.4704 108.846 46.5801C109.432 46.9656 110.038 47.3196 110.661 47.6406C110.871 47.747 111.08 47.85 111.293 47.9497C111.505 48.0495 111.722 48.1425 111.938 48.2356C112.154 48.3287 112.333 48.3952 112.533 48.475C113.108 48.6911 113.693 48.8839 114.291 49.0434C115.104 49.266 115.932 49.4326 116.768 49.5421C117.579 49.649 118.396 49.7023 119.214 49.7016C129.453 49.7016 138.063 41.1517 138.063 30.8531C138.063 20.5546 129.446 11.9414 119.208 11.9414ZM119.208 42.4248C116.479 42.4162 113.842 41.4437 111.761 39.679C111.402 39.3033 111.027 38.941 110.638 38.5986C107.827 36.0904 104.329 34.4812 100.595 33.9779C99.8061 33.8738 99.011 33.8216 98.2151 33.8217C97.3969 33.821 96.5796 33.8743 95.7684 33.9812C92.0716 34.4648 88.6012 36.0334 85.7957 38.4889L85.7092 38.5687C85.2813 38.943 84.873 39.3391 84.4859 39.7555C82.4494 41.4767 79.8722 42.4263 77.2058 42.4381C70.8664 42.4381 65.5709 37.1426 65.5709 30.8598C65.6004 27.7831 66.8357 24.8408 69.0113 22.6652C71.1869 20.4896 74.1292 19.2544 77.2058 19.2249C79.8342 19.2311 82.3785 20.1513 84.4028 21.8277C84.8489 22.3093 85.3205 22.7665 85.8156 23.1974C89.2559 26.2025 93.6703 27.8563 98.2383 27.8513C99.0365 27.8514 99.8338 27.7992 100.625 27.6951C104.349 27.1821 107.835 25.5697 110.638 23.0643C111.03 22.7319 111.409 22.3529 111.771 21.974C113.85 20.2046 116.488 19.2294 119.218 19.2216C125.557 19.2216 130.736 24.5736 130.736 30.8565C130.726 37.0728 125.491 42.4248 119.208 42.4248Z" fill="white"/>
<path d="M487.089 11.8387C486.281 11.8473 485.478 11.6995 484.726 11.4033C484.026 11.1241 483.389 10.7059 482.855 10.174C482.321 9.6421 481.9 9.00745 481.618 8.30842C481.025 6.81365 481.025 5.14923 481.618 3.65446C481.9 2.95868 482.321 2.32754 482.854 1.7995C483.391 1.27199 484.027 0.856212 484.726 0.576202C486.242 -0.00456735 487.92 -0.00456735 489.436 0.576202C490.136 0.85852 490.774 1.27397 491.315 1.7995C491.851 2.32709 492.275 2.95817 492.561 3.65446C493.154 5.14923 493.154 6.81365 492.561 8.30842C492.274 9.00711 491.851 9.64119 491.315 10.1733C490.776 10.703 490.137 11.1211 489.436 11.4033C488.689 11.6983 487.893 11.8461 487.089 11.8387ZM487.089 11.2537C488.018 11.2631 488.934 11.0341 489.749 10.5888C490.538 10.1552 491.193 9.51369 491.644 8.73393C492.12 7.89958 492.361 6.95186 492.342 5.99142C492.349 5.2809 492.216 4.57598 491.95 3.91709C491.695 3.29379 491.318 2.72839 490.839 2.25497C490.364 1.7787 489.799 1.40131 489.177 1.14464C487.828 0.617043 486.331 0.617043 484.982 1.14464C484.358 1.39965 483.791 1.77563 483.314 2.25091C482.836 2.72618 482.457 3.29137 482.199 3.91377C481.933 4.56895 481.799 5.27075 481.807 5.97811C481.8 6.68969 481.934 7.39565 482.199 8.05577C482.454 8.67749 482.829 9.24249 483.303 9.7179C483.778 10.1959 484.343 10.5755 484.965 10.8349C485.638 11.1162 486.36 11.2585 487.089 11.2537ZM484.63 2.33807H487.698C488.099 2.32645 488.494 2.44287 488.825 2.6705C489.146 2.89549 489.408 3.19412 489.589 3.54141C489.76 3.8596 489.855 4.21285 489.867 4.57375C489.879 4.93464 489.808 5.29348 489.659 5.6224C489.524 5.92211 489.327 6.18963 489.081 6.40695C488.834 6.6227 488.535 6.76849 488.213 6.82914L489.998 9.65476H489.064L487.362 6.94211H485.481V9.65476H484.616L484.63 2.33807ZM487.698 6.20414C487.888 6.21554 488.079 6.18033 488.252 6.10156C488.426 6.02278 488.578 5.90284 488.695 5.75209C488.925 5.43256 489.042 5.0453 489.028 4.65174C489.044 4.2464 488.902 3.85047 488.632 3.54806C488.506 3.40893 488.352 3.29858 488.18 3.22457C488.008 3.15055 487.822 3.1146 487.635 3.11922H485.481V6.20414H487.698Z" fill="white"/>
</g>
<defs>
<clipPath id="clip0_1383_636">
<rect width="492.99" height="49.5513" fill="white" transform="translate(0.0100098 0.148438)"/>
</clipPath>
</defs>
</svg>
