<svg width="72" height="42" viewBox="0 0 72 42" fill="none" xmlns="http://www.w3.org/2000/svg">
<path d="M54.5244 1.1133C53.8088 1.11257 53.094 1.16826 52.3846 1.28004C49.0889 1.79693 46.001 3.49223 43.5261 6.14348C43.2004 6.49087 42.8855 6.85443 42.5812 7.23424C40.7896 9.08741 38.5024 10.1138 36.1328 10.128C33.668 10.1211 31.2902 9.03891 29.446 7.08489C29.2164 6.80351 28.9809 6.52912 28.7337 6.2651C26.256 3.55172 23.1442 1.80647 19.8142 1.26266C19.1231 1.15388 18.4267 1.09935 17.7296 1.09939C15.5432 1.06472 13.3728 1.54937 11.3444 2.52516C9.31595 3.50095 7.46996 4.94843 5.91355 6.78364C4.35714 8.61885 3.12132 10.8052 2.27783 13.2158C1.43435 15.6263 1 18.213 1 20.8258C1 23.4386 1.43435 26.0254 2.27783 28.436C3.12132 30.8465 4.35714 33.0329 5.91355 34.8681C7.46996 36.7033 9.31595 38.1508 11.3444 39.1266C13.3728 40.1023 15.5432 40.587 17.7296 40.5523C18.4267 40.5524 19.1231 40.4978 19.8142 40.3891C20.3392 40.3055 20.8603 40.1895 21.3754 40.0417H21.4074L21.7998 39.9235C21.9307 39.8853 22.0615 39.8402 22.1894 39.795C22.3173 39.7499 22.4482 39.7047 22.5761 39.656L22.8872 39.5345L23.1779 39.4094C23.5471 39.2496 23.9105 39.062 24.2681 38.8814L24.5589 38.7181L24.7159 38.6313C25.0822 38.4193 25.4427 38.1901 25.7945 37.9365C25.9049 37.8635 26.0096 37.7871 26.1172 37.7107C26.3701 37.5266 26.6172 37.3355 26.8615 37.1375C27.0388 36.9916 27.2132 36.8422 27.3877 36.6928C27.5621 36.5434 27.7017 36.4114 27.8558 36.262L28.1465 35.9738L28.4372 35.6785C28.5332 35.5847 28.6262 35.4839 28.7279 35.3831C29.0187 35.0844 29.292 34.7752 29.5536 34.4487C31.3771 32.5684 33.7039 31.5307 36.1124 31.5237C38.4577 31.5332 40.7241 32.5364 42.5085 34.3549C42.8225 34.7509 43.1539 35.1226 43.497 35.4839L43.5174 35.5082C43.6685 35.6715 43.8081 35.8313 43.9796 35.9841C44.1511 36.137 44.2471 36.2482 44.3837 36.3732L44.4767 36.4601L44.6221 36.592C44.7529 36.7136 44.8896 36.8283 45.0262 36.9394C45.1629 37.0506 45.3169 37.1722 45.4478 37.2868C45.9601 37.6896 46.49 38.0596 47.0352 38.3951C47.2183 38.5062 47.4015 38.6139 47.5876 38.7181C47.7736 38.8223 47.9626 38.9196 48.1516 39.0169C48.3405 39.1142 48.4976 39.1836 48.672 39.267C49.175 39.4928 49.6866 39.6943 50.2099 39.861C50.9211 40.0936 51.6448 40.2677 52.3759 40.3821C53.0853 40.4939 53.8001 40.5496 54.5156 40.5488C63.4701 40.5488 71 31.614 71 20.8519C71 10.0898 63.4789 1.1133 54.5244 1.1133ZM54.5244 32.9688C52.1383 32.9598 49.8317 31.9435 48.012 30.0994C47.698 29.7068 47.3695 29.3282 47.0294 28.9704C44.5707 26.3493 41.5118 24.6676 38.2464 24.1417C37.5563 24.0329 36.8609 23.9784 36.1648 23.9784C35.4492 23.9777 34.7344 24.0334 34.025 24.1452C30.7919 24.6505 27.7567 26.2898 25.3031 28.8558L25.2276 28.9392C24.8533 29.3302 24.4962 29.7441 24.1576 30.1793C22.3766 31.978 20.1226 32.9704 17.7907 32.9827C12.2465 32.9827 7.61513 27.4488 7.61513 20.8832C7.64089 17.668 8.72123 14.5933 10.624 12.3198C12.5267 10.0463 15.0999 8.75534 17.7907 8.72455C20.0893 8.73108 22.3146 9.69272 24.085 11.4446C24.4751 11.9478 24.8875 12.4256 25.3206 12.8759C28.3294 16.0163 32.1901 17.7446 36.1851 17.7394C36.8832 17.7394 37.5805 17.6848 38.2726 17.576C41.5428 17.0485 44.6058 15.3631 47.0672 12.7369C47.4102 12.3895 47.7417 11.9935 48.0586 11.5975C49.8763 9.74845 52.1837 8.72929 54.5709 8.72108C60.1151 8.72108 64.6447 14.314 64.6447 20.8797C64.5981 27.3758 60.0192 32.9688 54.5244 32.9688Z" stroke="white" stroke-miterlimit="10"/>
</svg>
