<svg width="187" height="90" viewBox="0 0 187 90" fill="none" xmlns="http://www.w3.org/2000/svg">
<g clip-path="url(#clip0_1498_3265)">
<path d="M142.1 89.18C140.48 89.18 138.87 89.09 137.29 88.92L136.32 88.82C134.38 88.57 132.41 88.17 130.47 87.64C129.13 87.28 127.77 86.84 126.32 86.3L125.91 86.14C125.57 86.01 125.24 85.88 124.91 85.74C124.4 85.52 123.9 85.3 123.39 85.07C122.88 84.83 122.39 84.59 121.9 84.34C120.41 83.57 118.97 82.73 117.61 81.83C117.23 81.58 116.84 81.31 116.47 81.05L116.22 80.87C115.93 80.66 115.64 80.45 115.36 80.24L114.98 79.95C114.92 79.9 114.83 79.84 114.76 79.78C114.36 79.48 113.99 79.17 113.63 78.87C113.24 78.55 112.83 78.19 112.38 77.8L112.32 77.74C111.31 76.85 110.46 76.03 109.7 75.23C105.05 71.33 99.26 69.19 93.38 69.19C87.5 69.19 81.29 71.42 76.56 75.47H76.55C75.93 76.13 75.23 76.79 74.37 77.54C74.12 77.76 73.87 78 73.6 78.21C73.36 78.42 73.1 78.64 72.83 78.86C72.58 79.07 72.31 79.29 72.04 79.51C71.63 79.84 71.2 80.17 70.78 80.48C70.3 80.82 69.84 81.16 69.36 81.48C68.66 81.95 68.01 82.38 67.35 82.78L67.16 82.89C66.93 83.03 66.7 83.16 66.46 83.3C65.52 83.84 64.54 84.36 63.56 84.84L63.48 84.88C63.37 84.93 63.26 84.98 63.15 85.03C62.86 85.17 62.6 85.29 62.33 85.41C61.34 85.85 60.35 86.25 59.39 86.6L58.6 86.88C58.31 86.98 58.03 87.07 57.74 87.16C57.37 87.28 57.03 87.38 56.69 87.48C56.36 87.58 56 87.68 55.64 87.77C55.32 87.85 54.99 87.94 54.66 88.02L54.51 88.06C53.13 88.39 51.71 88.65 50.29 88.84L49.32 88.97V88.94C47.78 89.11 46.21 89.19 44.66 89.19C20.03 89.18 0 69.21 0 44.66C0 20.11 20.03 0 44.66 0C46.54 0 48.44 0.12 50.29 0.37C59.22 1.55 67.55 5.46 74.38 11.68C74.99 12.22 75.61 12.82 76.28 13.51C81.07 17.71 87.14 20.02 93.38 20.02C99.62 20.02 105.19 17.82 109.87 13.84C110.73 12.95 111.55 12.16 112.39 11.41C119.14 5.36 127.42 1.55 136.32 0.39C138.2 0.14 140.15 0.01 142.1 0.01C166.24 0.01 186.63 20.46 186.63 44.67C186.63 56.42 181.95 67.57 173.44 76.06C164.95 84.53 153.82 89.2 142.1 89.2V89.18ZM135.84 87.02L136.54 87.1C138.35 87.34 140.22 87.46 142.09 87.46C153.35 87.46 164.05 82.97 172.21 74.82C180.39 66.66 184.9 55.94 184.9 44.65C184.9 21.37 165.3 1.71 142.09 1.71C140.21 1.71 138.34 1.83 136.54 2.07C127.98 3.19 120.03 6.86 113.53 12.67C112.71 13.4 111.91 14.18 111.07 15.04L111.01 15.1C106.01 19.37 99.75 21.72 93.37 21.72C86.99 21.72 80.22 19.25 75.11 14.76L75.06 14.71C74.41 14.04 73.81 13.46 73.22 12.93C66.64 6.95 58.63 3.19 50.05 2.05C48.27 1.81 46.45 1.7 44.64 1.7C20.98 1.72 1.72 20.98 1.72 44.66C1.72 68.34 20.98 87.47 44.66 87.47C46.47 87.47 48.29 87.35 50.07 87.12L51.04 86.99C52.07 86.83 53.09 86.63 54.09 86.39C54.12 86.39 54.16 86.37 54.2 86.36H54.26C54.58 86.27 54.9 86.19 55.22 86.1C55.57 86.01 55.9 85.92 56.23 85.82C56.57 85.73 56.89 85.63 57.2 85.53C57.51 85.43 57.78 85.34 58.04 85.26L58.82 84.98C59.74 84.65 60.69 84.26 61.64 83.84C61.9 83.73 62.15 83.61 62.41 83.48C62.52 83.42 62.65 83.36 62.79 83.31L62.85 83.28C63.77 82.84 64.71 82.34 65.63 81.8C65.87 81.67 66.08 81.54 66.29 81.41L66.47 81.3C67.1 80.92 67.73 80.51 68.4 80.06C68.86 79.74 69.32 79.42 69.78 79.09C70.18 78.8 70.58 78.49 70.98 78.17C71.24 77.96 71.5 77.75 71.74 77.54C72.01 77.32 72.25 77.11 72.5 76.89C72.77 76.67 73 76.46 73.24 76.24C74.1 75.48 74.78 74.84 75.38 74.21L75.63 73.94H75.69C80.69 69.75 86.96 67.45 93.39 67.45C99.82 67.45 105.89 69.75 110.86 73.93L110.93 74C111.66 74.77 112.48 75.56 113.45 76.41L113.58 76.53C113.99 76.9 114.37 77.23 114.74 77.53C115.09 77.82 115.44 78.11 115.79 78.38L115.84 78.42C115.9 78.46 115.95 78.51 116.01 78.56L116.41 78.87C116.68 79.08 116.95 79.27 117.22 79.47L117.46 79.65C117.8 79.89 118.17 80.15 118.54 80.39C119.85 81.25 121.24 82.06 122.67 82.8C123.14 83.04 123.62 83.27 124.1 83.5C124.59 83.73 125.08 83.94 125.57 84.15C125.88 84.28 126.2 84.41 126.53 84.54L126.93 84.7C128.31 85.22 129.61 85.64 130.91 85.98C132.55 86.43 134.2 86.77 135.84 87.02ZM142.1 72.34C135.65 72.34 129.33 70.01 124.3 65.78L124.18 65.67C123.37 64.82 122.51 64 121.65 63.24L121.51 63.12C115.05 57.42 107.22 53.83 98.85 52.71H98.78C95.13 52.22 91.37 52.24 87.82 52.71H87.75C79.38 53.81 71.57 57.35 65.16 62.95C65.1 63.01 65.05 63.05 65 63.09L64.71 63.34C63.89 64.07 63.1 64.83 62.37 65.61V65.67L62.11 65.88L61.91 66.09H61.85C56.93 70.12 50.83 72.34 44.64 72.34C29.56 72.34 16.83 59.66 16.83 44.66C16.83 29.66 29.57 16.85 44.64 16.85C50.85 16.85 56.96 19.06 61.86 23.07L61.95 23.15C62.93 24.21 64.01 25.26 65.16 26.26C71.59 31.87 79.42 35.41 87.8 36.5C91.36 36.97 95.14 36.99 98.79 36.5C107.17 35.4 115.02 31.8 121.5 26.09L121.64 25.96C122.51 25.19 123.38 24.36 124.21 23.48L124.28 23.41C129.31 19.17 135.63 16.83 142.09 16.83C157.02 16.83 169.63 29.57 169.63 44.64C169.63 59.71 157.02 72.32 142.09 72.32L142.1 72.34ZM122.91 62.06C123.77 62.82 124.61 63.64 125.44 64.5C130.13 68.44 136.06 70.63 142.1 70.63C156.1 70.63 167.93 58.74 167.93 44.66C167.93 30.58 156.1 18.56 142.1 18.56C136.06 18.56 130.15 20.74 125.44 24.71C124.62 25.56 123.77 26.38 122.91 27.15L122.78 27.28C116.01 33.28 107.8 37.07 99.02 38.22C95.22 38.72 91.29 38.7 87.58 38.22C78.86 37.09 70.71 33.4 64.03 27.57C62.86 26.55 61.75 25.47 60.73 24.38C56.15 20.64 50.44 18.58 44.65 18.58C30.5 18.58 18.55 30.53 18.55 44.68C18.55 58.83 30.5 70.65 44.65 70.65C50.5 70.65 56.26 68.53 60.9 64.69L61.04 64.55C61.91 63.63 62.84 62.72 63.82 61.86L63.89 61.8C63.89 61.8 63.97 61.72 64.02 61.69C70.73 55.84 78.87 52.15 87.6 51.02H87.67C91.34 50.53 95.2 50.51 98.96 51H99.03C107.79 52.16 115.98 55.92 122.72 61.89L122.92 62.08L122.91 62.06Z" fill="white"/>
</g>
<defs>
<clipPath id="clip0_1498_3265">
<rect width="186.63" height="89.18" fill="white"/>
</clipPath>
</defs>
</svg>
