<svg width="835" height="114" viewBox="0 0 835 114" fill="none" xmlns="http://www.w3.org/2000/svg">
<g clip-path="url(#clip0_1383_1087)">
<path d="M826.917 39.0094C825.81 39.0212 824.711 38.8188 823.68 38.4132C822.722 38.0309 821.85 37.4584 821.119 36.7301C820.387 36.0018 819.811 35.1328 819.425 34.1757C818.614 32.129 818.614 29.8501 819.425 27.8034C819.811 26.8507 820.387 25.9865 821.118 25.2636C821.853 24.5413 822.724 23.972 823.68 23.5886C825.757 22.7934 828.054 22.7934 830.13 23.5886C831.088 23.9751 831.961 24.544 832.702 25.2636C833.437 25.9859 834.017 26.85 834.409 27.8034C835.22 29.8501 835.22 32.129 834.409 34.1757C834.016 35.1323 833.436 36.0005 832.702 36.7291C831.964 37.4544 831.09 38.0268 830.13 38.4132C829.107 38.8172 828.016 39.0195 826.917 39.0094ZM826.917 38.2083C828.188 38.2212 829.442 37.9078 830.558 37.298C831.639 36.7042 832.536 35.8259 833.152 34.7583C833.804 33.6159 834.135 32.3182 834.108 31.0032C834.118 30.0303 833.935 29.0652 833.571 28.163C833.223 27.3096 832.706 26.5354 832.051 25.8872C831.4 25.2351 830.627 24.7183 829.775 24.3669C827.929 23.6445 825.878 23.6445 824.031 24.3669C823.177 24.7161 822.401 25.2309 821.747 25.8816C821.093 26.5324 820.575 27.3062 820.221 28.1584C819.856 29.0555 819.673 30.0164 819.684 30.985C819.675 31.9593 819.857 32.9259 820.221 33.8297C820.569 34.681 821.083 35.4546 821.732 36.1055C822.383 36.76 823.156 37.2797 824.008 37.6349C824.929 38.0201 825.918 38.215 826.917 38.2083ZM823.549 26.001H827.75C828.299 25.9851 828.84 26.1445 829.293 26.4561C829.732 26.7642 830.091 27.1731 830.339 27.6486C830.573 28.0843 830.703 28.5679 830.72 29.0621C830.737 29.5562 830.639 30.0476 830.435 30.4979C830.251 30.9083 829.981 31.2746 829.643 31.5721C829.306 31.8675 828.896 32.0672 828.455 32.1502L830.899 36.0191H829.62L827.29 32.3049H824.714V36.0191H823.53L823.549 26.001ZM827.75 31.2945C828.01 31.3101 828.271 31.2619 828.509 31.154C828.747 31.0461 828.955 30.8819 829.115 30.6755C829.43 30.238 829.591 29.7077 829.57 29.1689C829.593 28.6139 829.399 28.0718 829.029 27.6577C828.857 27.4672 828.646 27.3161 828.41 27.2148C828.174 27.1134 827.92 27.0642 827.663 27.0705H824.714V31.2945H827.75Z" fill="white"/>
</g>
<g clip-path="url(#clip1_1383_1087)">
<path d="M68.9024 36.9453L55.5981 73.2673L44.2099 36.9453H36.1626L23.9779 73.2673L11.3927 36.9453H0L18.3203 86.9676H29.1531L39.986 55.1063L50.5002 86.9676H60.8552L79.972 36.9453H68.9024Z" fill="white"/>
<path d="M236.493 36.9453H196.439V86.9677H236.493C243.102 86.9677 246.448 83.7041 246.448 77.0132V46.9725C246.451 44.3246 245.406 41.783 243.54 39.9039C241.675 38.0247 239.141 36.961 236.493 36.9453ZM236.493 76.9996H206.548V46.9589H236.498L236.493 76.9996Z" fill="white"/>
<path d="M264.527 36.9453H254.49V86.9676H294.476V77.0132H264.527V36.9453Z" fill="white"/>
<path d="M310.088 66.9769H339.879V57.018H310.088V46.9816H340.038V36.9453H300.129V86.9676H340.12V77.0132H310.088V66.9769Z" fill="white"/>
<path d="M380.661 60.5227L403.124 36.9453H389.742L373.97 54.2324L358.04 36.9453H344.257L366.879 60.6046L343.702 86.9676H357.002L373.333 67.5322L389.901 86.9676H403.679L380.661 60.5227Z" fill="white"/>
<path d="M163.208 36.1484C162.087 36.1475 160.968 36.2205 159.858 36.3669C154.702 37.0576 149.876 39.2899 146.012 42.7711C145.502 43.2262 145.009 43.7026 144.532 44.2002C141.727 46.6283 138.147 47.9732 134.437 47.9918C130.578 47.9827 126.855 46.5648 123.968 44.0045C123.608 43.6359 123.24 43.2764 122.853 42.9304C118.974 39.3753 114.102 37.0886 108.889 36.376C107.807 36.2335 106.716 36.1621 105.625 36.1621C102.202 36.1167 98.804 36.7517 95.6283 38.0302C92.4527 39.3087 89.5626 41.2053 87.1259 43.6098C84.6892 46.0144 82.7545 48.879 81.4339 52.0374C80.1134 55.1959 79.4333 58.5851 79.4333 62.0085C79.4333 65.4318 80.1134 68.8212 81.4339 71.9796C82.7545 75.138 84.6892 78.0026 87.1259 80.4072C89.5626 82.8117 92.4527 84.7083 95.6283 85.9868C98.804 87.2653 102.202 87.9003 105.625 87.8549C106.716 87.855 107.807 87.7835 108.889 87.641C109.711 87.5314 110.526 87.3795 111.333 87.1858H111.383L111.997 87.031C112.202 86.981 112.407 86.9219 112.607 86.8627C112.807 86.8035 113.012 86.7443 113.213 86.6806L113.7 86.5213L114.155 86.3574C114.733 86.148 115.302 85.9022 115.862 85.6656L116.317 85.4516L116.563 85.3378C117.136 85.0602 117.7 84.7598 118.251 84.4275C118.424 84.3319 118.588 84.2318 118.756 84.1317C119.152 83.8905 119.539 83.6401 119.922 83.3806C120.199 83.1895 120.472 82.9937 120.745 82.798C121.019 82.6023 121.237 82.4293 121.478 82.2336L121.933 81.8559L122.389 81.469C122.539 81.3461 122.684 81.214 122.844 81.082C123.299 80.6906 123.727 80.2855 124.136 79.8577C126.991 77.394 130.634 76.0345 134.405 76.0252C138.077 76.0377 141.625 77.3521 144.418 79.7348C144.91 80.2537 145.429 80.7407 145.966 81.2141C145.978 81.2235 145.988 81.2342 145.998 81.2459C146.235 81.4599 146.453 81.6692 146.722 81.8695C146.99 82.0697 147.14 82.2154 147.354 82.3793L147.5 82.4931L147.728 82.666C147.932 82.8253 148.146 82.9755 148.36 83.1212C148.574 83.2668 148.815 83.4261 149.02 83.5763C149.822 84.1041 150.652 84.5889 151.505 85.0284C151.792 85.174 152.079 85.3151 152.37 85.4516C152.661 85.5882 152.957 85.7156 153.253 85.843C153.549 85.9705 153.795 86.0616 154.068 86.1708C154.855 86.4667 155.656 86.7307 156.476 86.9491C157.589 87.2539 158.722 87.482 159.867 87.6319C160.977 87.7783 162.096 87.8513 163.217 87.8504C177.236 87.8504 189.024 76.1436 189.024 62.0427C189.024 47.9418 177.227 36.1484 163.208 36.1484ZM163.208 77.8868C159.472 77.875 155.861 76.5434 153.012 74.1271C152.52 73.6128 152.006 73.1167 151.473 72.6479C147.624 69.2137 142.835 67.0103 137.723 66.3212C136.643 66.1786 135.554 66.1072 134.464 66.1072C133.344 66.1063 132.225 66.1793 131.114 66.3257C126.052 66.9878 121.301 69.1356 117.459 72.4977L117.341 72.607C116.755 73.1194 116.196 73.6618 115.666 74.2319C112.877 76.5887 109.349 77.8889 105.698 77.905C97.0179 77.905 89.7671 70.6544 89.7671 62.0518C89.8075 57.8392 91.4988 53.8105 94.4777 50.8316C97.4566 47.8528 101.485 46.1615 105.698 46.1211C109.297 46.1297 112.78 47.3895 115.552 49.685C116.163 50.3443 116.809 50.9703 117.487 51.5603C122.197 55.675 128.241 57.9394 134.496 57.9326C135.589 57.9327 136.68 57.8612 137.764 57.7186C142.863 57.0162 147.636 54.8085 151.473 51.3782C152.011 50.923 152.529 50.4041 153.026 49.8852C155.871 47.4626 159.484 46.1273 163.221 46.1166C171.901 46.1166 178.993 53.4447 178.993 62.0472C178.979 70.5588 171.81 77.8868 163.208 77.8868Z" fill="white"/>
</g>
<path d="M457.964 68.645H442.164V88H437.266V36.65H457.49C460.808 36.65 463.705 37.3347 466.18 38.704C468.708 40.0207 470.657 41.9167 472.026 44.392C473.448 46.8147 474.159 49.6323 474.159 52.845C474.159 55.8997 473.501 58.612 472.184 60.982C470.867 63.352 468.998 65.2217 466.575 66.591C464.152 67.9603 461.282 68.645 457.964 68.645ZM457.016 41.153H442.164V64.063H457.016C460.808 64.063 463.757 63.0887 465.864 61.14C467.971 59.1913 469.024 56.4263 469.024 52.845C469.024 49.1583 467.971 46.288 465.864 44.234C463.757 42.18 460.808 41.153 457.016 41.153ZM480.682 62.957C480.682 57.5323 481.63 52.7923 483.526 48.737C485.475 44.6817 488.161 41.5217 491.584 39.257C495.007 36.9923 499.01 35.86 503.592 35.86C508.121 35.86 512.098 36.9923 515.521 39.257C518.944 41.5217 521.604 44.6817 523.5 48.737C525.449 52.7923 526.423 57.5323 526.423 62.957C526.423 68.0657 525.449 72.5687 523.5 76.466C521.604 80.3107 518.944 83.3127 515.521 85.472C512.098 87.5787 508.121 88.632 503.592 88.632C499.01 88.632 494.981 87.5787 491.505 85.472C488.082 83.3127 485.422 80.3107 483.526 76.466C481.63 72.5687 480.682 68.0657 480.682 62.957ZM521.288 62.957C521.288 55.8997 519.734 50.4223 516.627 46.525C513.52 42.575 509.175 40.6 503.592 40.6C497.957 40.6 493.585 42.575 490.478 46.525C487.371 50.4223 485.817 55.8997 485.817 62.957C485.817 69.593 487.371 74.7543 490.478 78.441C493.585 82.075 497.957 83.892 503.592 83.892C509.175 83.892 513.52 82.075 516.627 78.441C519.734 74.7543 521.288 69.593 521.288 62.957ZM551.702 66.433H539.062V88H534.164V36.65H555.257C558.417 36.65 561.156 37.282 563.473 38.546C565.843 39.7573 567.687 41.4953 569.003 43.76C570.32 45.972 570.978 48.579 570.978 51.581C570.978 54.899 570.03 57.7167 568.134 60.034C566.291 62.3513 563.763 63.905 560.55 64.695C563.447 65.169 565.58 66.3013 566.949 68.092C568.319 69.83 569.214 72.437 569.635 75.913L571.057 88H566.238L564.895 76.545C564.474 72.9637 563.236 70.383 561.182 68.803C559.128 67.223 555.968 66.433 551.702 66.433ZM554.704 41.153H539.062V61.93H554.704C558.233 61.93 560.972 61.0347 562.92 59.244C564.922 57.4533 565.922 54.9517 565.922 51.739C565.922 48.421 564.922 45.8403 562.92 43.997C560.972 42.101 558.233 41.153 554.704 41.153ZM613.356 36.65V41.311H597.714V88H592.895V41.311H577.253V36.65H613.356ZM654.625 36.65V41.311H625.237V61.061H652.413V65.722H625.237V88H620.339V36.65H654.625ZM661.672 62.957C661.672 57.5323 662.62 52.7923 664.516 48.737C666.465 44.6817 669.151 41.5217 672.574 39.257C675.998 36.9923 680 35.86 684.582 35.86C689.112 35.86 693.088 36.9923 696.511 39.257C699.935 41.5217 702.594 44.6817 704.49 48.737C706.439 52.7923 707.413 57.5323 707.413 62.957C707.413 68.0657 706.439 72.5687 704.49 76.466C702.594 80.3107 699.935 83.3127 696.511 85.472C693.088 87.5787 689.112 88.632 684.582 88.632C680 88.632 675.971 87.5787 672.495 85.472C669.072 83.3127 666.412 80.3107 664.516 76.466C662.62 72.5687 661.672 68.0657 661.672 62.957ZM702.278 62.957C702.278 55.8997 700.725 50.4223 697.617 46.525C694.51 42.575 690.165 40.6 684.582 40.6C678.947 40.6 674.576 42.575 671.468 46.525C668.361 50.4223 666.807 55.8997 666.807 62.957C666.807 69.593 668.361 74.7543 671.468 78.441C674.576 82.075 678.947 83.892 684.582 83.892C690.165 83.892 694.51 82.075 697.617 78.441C700.725 74.7543 702.278 69.593 702.278 62.957ZM745.491 88H715.155V36.65H720.053V83.339H745.491V88ZM752.495 36.65H757.393V88H752.495V36.65ZM765.128 62.957C765.128 57.5323 766.076 52.7923 767.972 48.737C769.921 44.6817 772.607 41.5217 776.03 39.257C779.454 36.9923 783.456 35.86 788.038 35.86C792.568 35.86 796.544 36.9923 799.967 39.257C803.391 41.5217 806.05 44.6817 807.946 48.737C809.895 52.7923 810.869 57.5323 810.869 62.957C810.869 68.0657 809.895 72.5687 807.946 76.466C806.05 80.3107 803.391 83.3127 799.967 85.472C796.544 87.5787 792.568 88.632 788.038 88.632C783.456 88.632 779.427 87.5787 775.951 85.472C772.528 83.3127 769.868 80.3107 767.972 76.466C766.076 72.5687 765.128 68.0657 765.128 62.957ZM805.734 62.957C805.734 55.8997 804.181 50.4223 801.073 46.525C797.966 42.575 793.621 40.6 788.038 40.6C782.403 40.6 778.032 42.575 774.924 46.525C771.817 50.4223 770.263 55.8997 770.263 62.957C770.263 69.593 771.817 74.7543 774.924 78.441C778.032 82.075 782.403 83.892 788.038 83.892C793.621 83.892 797.966 82.075 801.073 78.441C804.181 74.7543 805.734 69.593 805.734 62.957Z" fill="white"/>
<defs>
<clipPath id="clip0_1383_1087">
<rect width="23.01" height="67.8465" fill="white" transform="translate(812 23)"/>
</clipPath>
<clipPath id="clip1_1383_1087">
<rect width="675.01" height="67.8465" fill="white" transform="translate(0 20)"/>
</clipPath>
</defs>
</svg>
