<svg width="501" height="51" viewBox="0 0 501 51" fill="none" xmlns="http://www.w3.org/2000/svg">
<g clip-path="url(#clip0_1383_1065)">
<path d="M317.588 31.4276C317.588 27.68 318.235 24.4009 319.53 21.5902C320.697 18.9285 322.599 16.655 325.013 15.0366C327.373 13.4826 330.128 12.7056 333.276 12.7056C335.883 12.6615 338.467 13.1992 340.84 14.2799C342.979 15.2553 344.83 16.7683 346.211 18.6715C347.583 20.6081 348.401 22.8821 348.576 25.2488H344.921C344.772 22.4382 343.657 20.2086 341.576 18.56C339.495 16.9114 336.73 16.0861 333.279 16.0838C329.451 16.0838 326.489 17.4238 324.395 20.1039C322.3 22.7839 321.251 26.5607 321.246 31.4343C321.246 36.3462 322.296 40.1512 324.395 42.8493C326.494 45.5473 329.455 46.8986 333.279 46.9031C336.432 46.9031 339.001 45.741 340.985 43.4168C342.969 41.0926 344.095 37.9621 344.363 34.0254H333.053V30.9344H348.559V49.8252H345.917L345.522 40.4372C344.434 43.4325 342.813 45.822 340.657 47.6057C338.538 49.3732 335.853 50.3204 333.094 50.2746C330.214 50.3237 327.387 49.4993 324.986 47.9098C322.585 46.2616 320.696 43.972 319.533 41.302C318.239 38.4644 317.59 35.1729 317.588 31.4276Z" fill="black"/>
<path d="M367.139 34.4695H358.139V49.82H354.64V13.2612H369.656C371.693 13.2136 373.71 13.6671 375.53 14.5821C377.159 15.4251 378.515 16.7139 379.439 18.2981C380.404 20.0018 380.889 21.9349 380.844 23.8924C380.906 26.0702 380.199 28.2003 378.848 29.909C377.462 31.5915 375.552 32.7598 373.422 33.2264C375.483 33.5642 377.001 34.3603 377.976 35.6147C378.951 36.8691 379.589 38.7351 379.888 41.2124L380.902 49.8133H377.469L376.513 41.6617C376.212 39.1101 375.331 37.2734 373.872 36.1519C372.412 35.0303 370.168 34.4695 367.139 34.4695ZM369.274 16.4773H358.126V31.2636H369.274C371.787 31.2636 373.747 30.6274 375.152 29.355C376.557 28.0825 377.26 26.3011 377.26 24.0107C377.26 21.6482 376.557 19.8025 375.152 18.4737C373.747 17.145 371.784 16.4761 369.264 16.4671L369.274 16.4773Z" fill="black"/>
<path d="M385.851 31.986C385.851 28.1236 386.535 24.7454 387.905 21.8515C389.144 19.1142 391.119 16.7751 393.611 15.0951C396.047 13.4848 398.896 12.6797 402.157 12.6797C405.385 12.6797 408.216 13.4848 410.65 15.0951C413.141 16.7751 415.117 19.1142 416.356 21.8515C417.723 24.7364 418.408 28.1146 418.41 31.986C418.41 35.621 417.725 38.8168 416.356 41.5734C415.099 44.2091 413.12 46.4346 410.65 47.992C408.211 49.5122 405.38 50.2711 402.157 50.2689C398.896 50.2689 396.038 49.5099 393.584 47.992C391.103 46.4458 389.121 44.2173 387.874 41.5734C386.528 38.8168 385.853 35.621 385.851 31.986ZM414.755 31.986C414.755 26.9638 413.649 23.0552 411.437 20.2603C409.226 17.4654 406.132 16.0692 402.157 16.0714C398.146 16.0714 395.035 17.4677 392.823 20.2603C390.612 23.053 389.506 26.9615 389.506 31.986C389.506 36.7155 390.612 40.3798 392.823 42.9787C395.035 45.5777 398.146 46.8806 402.157 46.8873C406.13 46.8873 409.223 45.5844 411.437 42.9787C413.651 40.373 414.763 36.7088 414.772 31.986H414.755Z" fill="black"/>
<path d="M423.639 13.2578H427.126V35.8613C427.126 39.3476 428.027 42.0502 429.828 43.969C431.63 45.8878 434.141 46.8439 437.362 46.8371C440.548 46.8371 443.033 45.881 444.814 43.969C446.595 42.0569 447.485 39.3544 447.483 35.8613V13.2578H450.969V35.8613C450.969 38.7485 450.398 41.2698 449.256 43.4251C448.169 45.5197 446.512 47.2644 444.476 48.4586C442.31 49.6889 439.852 50.31 437.362 50.2558C434.845 50.3122 432.36 49.6915 430.166 48.4586C428.116 47.2726 426.447 45.5265 425.356 43.4251C424.214 41.2698 423.643 38.7485 423.643 35.8613L423.639 13.2578Z" fill="black"/>
<path d="M471.492 36.0335H460.246V49.8098H456.759V13.2611H471.154C473.312 13.2122 475.448 13.7059 477.366 14.6969C479.115 15.6198 480.56 17.0273 481.528 18.7507C482.548 20.599 483.062 22.6838 483.018 24.7943C483.055 26.8142 482.571 28.8096 481.613 30.5879C480.681 32.266 479.298 33.6494 477.62 34.581C475.738 35.5898 473.626 36.0904 471.492 36.0335ZM470.816 16.467H460.246V32.7804H470.816C473.519 32.7804 475.617 32.0867 477.113 30.6994C478.608 29.3121 479.358 27.3437 479.363 24.7943C479.363 22.1729 478.613 20.1301 477.113 18.6662C475.613 17.2024 473.514 16.4693 470.816 16.467Z" fill="black"/>
<path d="M51.1391 12.5781L41.2647 39.5361L32.8124 12.5781H26.8398L17.7963 39.5361L8.45563 12.5781H0L13.5972 49.7045H21.6374L29.6775 26.0571L37.4811 49.7045H45.1665L59.3549 12.5781H51.1391Z" fill="black"/>
<path d="M175.524 12.5781H145.796V49.7046H175.524C180.429 49.7046 182.912 47.2823 182.912 42.3164V20.0203C182.915 18.055 182.139 16.1687 180.755 14.774C179.37 13.3792 177.49 12.5897 175.524 12.5781ZM175.524 42.3063H153.299V20.0102H175.528L175.524 42.3063Z" fill="black"/>
<path d="M196.331 12.5781H188.882V49.7045H218.559V42.3164H196.331V12.5781Z" fill="black"/>
<path d="M230.146 34.8675H252.257V27.476H230.146V20.027H252.375V12.5781H222.755V49.7045H252.436V42.3164H230.146V34.8675Z" fill="black"/>
<path d="M282.525 30.0772L299.197 12.5781H289.265L277.559 25.4085L265.736 12.5781H255.507L272.296 30.138L255.094 49.7045H264.966L277.087 35.2796L289.383 49.7045H299.609L282.525 30.0772Z" fill="black"/>
<path d="M121.132 11.9844C120.301 11.9837 119.47 12.0378 118.646 12.1465C114.819 12.6591 111.237 14.3159 108.369 16.8997C107.991 17.2375 107.625 17.591 107.271 17.9604C105.189 19.7625 102.532 20.7607 99.7784 20.7745C96.9144 20.7677 94.1514 19.7154 92.0086 17.8152C91.7417 17.5415 91.468 17.2747 91.1809 17.0179C88.3018 14.3793 84.686 12.6821 80.8166 12.1533C80.0135 12.0475 79.2044 11.9945 78.3944 11.9945C75.8538 11.9608 73.3319 12.4321 70.9749 13.381C68.618 14.3299 66.473 15.7375 64.6645 17.5222C62.856 19.3069 61.42 21.433 60.4399 23.7771C59.4598 26.1213 58.9551 28.6368 58.9551 31.1776C58.9551 33.7184 59.4598 36.234 60.4399 38.5781C61.42 40.9223 62.856 43.0484 64.6645 44.8331C66.473 46.6177 68.618 48.0253 70.9749 48.9742C73.3319 49.9231 75.8538 50.3944 78.3944 50.3607C79.2044 50.3608 80.0135 50.3077 80.8166 50.202C81.4267 50.1207 82.0322 50.0079 82.6307 49.8641H82.6678L83.1239 49.7493C83.2759 49.7121 83.4279 49.6682 83.5766 49.6243C83.7252 49.5804 83.8772 49.5364 84.0259 49.4891L84.3873 49.3709L84.7252 49.2493C85.1542 49.0939 85.5765 48.9115 85.992 48.7358L86.3298 48.577L86.5122 48.4926C86.9379 48.2865 87.3568 48.0635 87.7655 47.8169C87.8939 47.746 88.0155 47.6717 88.1405 47.5974C88.4344 47.4183 88.7216 47.2325 89.0053 47.0399C89.2114 46.898 89.4141 46.7528 89.6168 46.6075C89.8195 46.4622 89.9816 46.3339 90.1607 46.1886L90.4985 45.9083L90.8363 45.6211C90.9478 45.5299 91.0559 45.4319 91.1741 45.3339C91.512 45.0434 91.8295 44.7428 92.1336 44.4252C94.2524 42.5967 96.9561 41.5876 99.7548 41.5808C102.48 41.59 105.113 42.5656 107.187 44.334C107.552 44.7191 107.937 45.0806 108.335 45.4319C108.344 45.4389 108.352 45.4469 108.359 45.4556C108.535 45.6144 108.697 45.7697 108.896 45.9184C109.095 46.067 109.207 46.1751 109.366 46.2967L109.474 46.3812L109.643 46.5095C109.795 46.6278 109.954 46.7393 110.112 46.8474C110.271 46.9555 110.45 47.0737 110.602 47.1852C111.197 47.5769 111.813 47.9367 112.447 48.2629C112.659 48.371 112.872 48.4757 113.088 48.577C113.305 48.6784 113.524 48.7729 113.744 48.8675C113.963 48.9621 114.146 49.0297 114.349 49.1108C114.933 49.3304 115.528 49.5263 116.136 49.6885C116.962 49.9147 117.803 50.084 118.652 50.1952C119.477 50.3039 120.307 50.3581 121.139 50.3573C131.544 50.3573 140.293 41.6686 140.293 31.203C140.293 20.7373 131.537 11.9844 121.132 11.9844ZM121.132 42.9624C118.359 42.9537 115.679 41.9654 113.565 40.172C113.2 39.7903 112.818 39.4221 112.423 39.0741C109.566 36.5253 106.012 34.8899 102.217 34.3785C101.416 34.2727 100.608 34.2197 99.7987 34.2197C98.9672 34.219 98.1366 34.2731 97.3123 34.3818C93.5555 34.8732 90.0288 36.4674 87.1777 38.9627L87.0899 39.0438C86.655 39.4241 86.2401 39.8267 85.8467 40.2498C83.7772 41.999 81.1581 42.964 78.4485 42.976C72.0063 42.976 66.6248 37.5945 66.6248 31.2097C66.6547 28.0832 67.91 25.0931 70.121 22.8822C72.3319 20.6713 75.3219 19.416 78.4485 19.3861C81.1195 19.3924 83.7051 20.3275 85.7623 22.0311C86.2156 22.5205 86.6948 22.9851 87.198 23.423C90.6941 26.4769 95.1802 28.1575 99.8223 28.1525C100.633 28.1525 101.444 28.0995 102.248 27.9937C106.032 27.4724 109.575 25.8338 112.423 23.2878C112.822 22.95 113.207 22.5649 113.575 22.1798C115.687 20.3817 118.368 19.3907 121.142 19.3827C127.584 19.3827 132.848 24.8216 132.848 31.2064C132.837 37.5236 127.517 42.9624 121.132 42.9624Z" fill="black"/>
<path d="M494.984 11.8801C494.162 11.8889 493.346 11.7387 492.582 11.4376C491.87 11.1539 491.223 10.7289 490.681 10.1884C490.138 9.64784 489.71 9.0029 489.423 8.29252C488.821 6.7735 488.821 5.08207 489.423 3.56305C489.71 2.85597 490.137 2.21459 490.68 1.67799C491.225 1.14191 491.872 0.719387 492.582 0.434833C494.123 -0.155361 495.828 -0.155361 497.369 0.434833C498.079 0.721732 498.728 1.14392 499.277 1.67799C499.823 2.21414 500.254 2.85545 500.544 3.56305C501.146 5.08207 501.146 6.7735 500.544 8.29252C500.253 9.00255 499.822 9.64692 499.277 10.1876C498.73 10.726 498.081 11.1508 497.369 11.4376C496.61 11.7374 495.8 11.8876 494.984 11.8801ZM494.984 11.2856C495.927 11.2951 496.858 11.0625 497.686 10.6099C498.488 10.1692 499.154 9.51735 499.612 8.72494C500.096 7.87705 500.341 6.91395 500.321 5.93793C500.328 5.21588 500.193 4.49952 499.923 3.82994C499.664 3.19652 499.281 2.62194 498.794 2.14084C498.311 1.65685 497.737 1.27333 497.105 1.01249C495.735 0.476336 494.212 0.476336 492.842 1.01249C492.208 1.27165 491.632 1.65373 491.147 2.13672C490.661 2.6197 490.277 3.19406 490.014 3.82656C489.743 4.49238 489.608 5.20557 489.616 5.9244C489.609 6.64753 489.744 7.36494 490.014 8.03578C490.273 8.66759 490.654 9.24175 491.136 9.72487C491.619 10.2106 492.193 10.5964 492.825 10.86C493.509 11.1458 494.243 11.2905 494.984 11.2856ZM492.484 2.22529H495.602C496.01 2.21348 496.411 2.3318 496.747 2.56311C497.073 2.79176 497.34 3.09524 497.524 3.44816C497.698 3.77151 497.794 4.1305 497.807 4.49725C497.819 4.864 497.746 5.22866 497.595 5.56291C497.458 5.86749 497.258 6.13935 497.007 6.3602C496.757 6.57945 496.452 6.7276 496.125 6.78924L497.94 9.66071H496.99L495.261 6.90405H493.349V9.66071H492.47L492.484 2.22529ZM495.602 6.1541C495.795 6.16568 495.989 6.12991 496.165 6.04985C496.342 5.96979 496.497 5.84791 496.615 5.69471C496.849 5.36999 496.968 4.97645 496.953 4.57651C496.97 4.16459 496.826 3.76223 496.551 3.45492C496.424 3.31353 496.267 3.20139 496.092 3.12617C495.917 3.05096 495.728 3.01442 495.538 3.01912H493.349V6.1541H495.602Z" fill="black"/>
</g>
<defs>
<clipPath id="clip0_1383_1065">
<rect width="500.99" height="50.3554" fill="white"/>
</clipPath>
</defs>
</svg>
